<?xml version="1.0" encoding="UTF-8" standalone="no"?>
<!DOCTYPE svg PUBLIC "-//W3C//DTD SVG 1.1//EN"
 "http://www.w3.org/Graphics/SVG/1.1/DTD/svg11.dtd">
<!-- Generated by graphviz version 2.48.0 (20210718.0759)
 -->
<!-- Pages: 1 -->
<svg width="1871pt" height="1595pt"
 viewBox="0.00 0.00 1871.29 1595.00" xmlns="http://www.w3.org/2000/svg" xmlns:xlink="http://www.w3.org/1999/xlink">
<g id="graph0" class="graph" transform="scale(1 1) rotate(0) translate(4 1591)">
<polygon fill="white" stroke="transparent" points="-4,4 -4,-1591 1867.29,-1591 1867.29,4 -4,4"/>
<text text-anchor="middle" x="931.64" y="-1570.4" font-family="Arial" font-size="14.00">A generic account takeover (ATO) threat model</text>
<!-- reality -->
<g id="node1" class="node">
<title>reality</title>
<path fill="#272727" stroke="transparent" d="M1431.56,-1562.1C1431.56,-1562.1 1385.01,-1562.1 1385.01,-1562.1 1379.01,-1562.1 1373.01,-1556.1 1373.01,-1550.1 1373.01,-1550.1 1373.01,-1529.5 1373.01,-1529.5 1373.01,-1523.5 1379.01,-1517.5 1385.01,-1517.5 1385.01,-1517.5 1431.56,-1517.5 1431.56,-1517.5 1437.56,-1517.5 1443.56,-1523.5 1443.56,-1529.5 1443.56,-1529.5 1443.56,-1550.1 1443.56,-1550.1 1443.56,-1556.1 1437.56,-1562.1 1431.56,-1562.1"/>
<text text-anchor="middle" x="1408.29" y="-1535.6" font-family="Arial" font-size="14.00" fill="#ffffff">Reality</text>
</g>
<!-- password -->
<g id="node2" class="node">
<title>password</title>
<path fill="#d2d5dd" stroke="transparent" d="M743.35,-1471.4C743.35,-1471.4 619.23,-1471.4 619.23,-1471.4 613.23,-1471.4 607.23,-1465.4 607.23,-1459.4 607.23,-1459.4 607.23,-1422.2 607.23,-1422.2 607.23,-1416.2 613.23,-1410.2 619.23,-1410.2 619.23,-1410.2 743.35,-1410.2 743.35,-1410.2 749.35,-1410.2 755.35,-1416.2 755.35,-1422.2 755.35,-1422.2 755.35,-1459.4 755.35,-1459.4 755.35,-1465.4 749.35,-1471.4 743.35,-1471.4"/>
<text text-anchor="middle" x="681.29" y="-1445" font-family="Arial" font-size="14.00">Adversary remotely</text>
<text text-anchor="middle" x="681.29" y="-1428.2" font-family="Arial" font-size="14.00">targets password.</text>
</g>
<!-- reality&#45;&gt;password -->
<g id="edge49" class="edge">
<title>reality&#45;&gt;password</title>
<path fill="none" stroke="#2b303a" d="M1372.73,-1534.06C1262.55,-1519.35 924.67,-1474.27 765.68,-1453.06"/>
<polygon fill="#2b303a" stroke="#2b303a" points="765.84,-1449.55 755.47,-1451.7 764.92,-1456.49 765.84,-1449.55"/>
</g>
<!-- pw_reset -->
<g id="node3" class="node">
<title>pw_reset</title>
<path fill="#d2d5dd" stroke="transparent" d="M1215.35,-1480.2C1215.35,-1480.2 1091.23,-1480.2 1091.23,-1480.2 1085.23,-1480.2 1079.23,-1474.2 1079.23,-1468.2 1079.23,-1468.2 1079.23,-1413.4 1079.23,-1413.4 1079.23,-1407.4 1085.23,-1401.4 1091.23,-1401.4 1091.23,-1401.4 1215.35,-1401.4 1215.35,-1401.4 1221.35,-1401.4 1227.35,-1407.4 1227.35,-1413.4 1227.35,-1413.4 1227.35,-1468.2 1227.35,-1468.2 1227.35,-1474.2 1221.35,-1480.2 1215.35,-1480.2"/>
<text text-anchor="middle" x="1153.29" y="-1453.4" font-family="Arial" font-size="14.00">Adversary remotely</text>
<text text-anchor="middle" x="1153.29" y="-1436.6" font-family="Arial" font-size="14.00">targets password</text>
<text text-anchor="middle" x="1153.29" y="-1419.8" font-family="Arial" font-size="14.00">reset mechanism.</text>
</g>
<!-- reality&#45;&gt;pw_reset -->
<g id="edge50" class="edge">
<title>reality&#45;&gt;pw_reset</title>
<path fill="none" stroke="#2b303a" d="M1372.8,-1527.91C1342.19,-1518.27 1296.95,-1503.44 1258.29,-1488.4 1251.39,-1485.72 1244.28,-1482.83 1237.17,-1479.86"/>
<polygon fill="#2b303a" stroke="#2b303a" points="1238.07,-1476.44 1227.5,-1475.76 1235.34,-1482.88 1238.07,-1476.44"/>
</g>
<!-- remote_device -->
<g id="node4" class="node">
<title>remote_device</title>
<path fill="#d2d5dd" stroke="transparent" d="M1393.31,-1480.2C1393.31,-1480.2 1277.27,-1480.2 1277.27,-1480.2 1271.27,-1480.2 1265.27,-1474.2 1265.27,-1468.2 1265.27,-1468.2 1265.27,-1413.4 1265.27,-1413.4 1265.27,-1407.4 1271.27,-1401.4 1277.27,-1401.4 1277.27,-1401.4 1393.31,-1401.4 1393.31,-1401.4 1399.31,-1401.4 1405.31,-1407.4 1405.31,-1413.4 1405.31,-1413.4 1405.31,-1468.2 1405.31,-1468.2 1405.31,-1474.2 1399.31,-1480.2 1393.31,-1480.2"/>
<text text-anchor="middle" x="1335.29" y="-1453.4" font-family="Arial" font-size="14.00">Adversary is</text>
<text text-anchor="middle" x="1335.29" y="-1436.6" font-family="Arial" font-size="14.00">remotely targeting</text>
<text text-anchor="middle" x="1335.29" y="-1419.8" font-family="Arial" font-size="14.00">the device.</text>
</g>
<!-- reality&#45;&gt;remote_device -->
<g id="edge51" class="edge">
<title>reality&#45;&gt;remote_device</title>
<path fill="none" stroke="#2b303a" d="M1392.09,-1517.27C1385.59,-1508.64 1377.84,-1498.34 1370.18,-1488.16"/>
<polygon fill="#2b303a" stroke="#2b303a" points="1372.89,-1485.94 1364.08,-1480.06 1367.3,-1490.15 1372.89,-1485.94"/>
</g>
<!-- local_device -->
<g id="node5" class="node">
<title>local_device</title>
<path fill="#d2d5dd" stroke="transparent" d="M1533.03,-1480.2C1533.03,-1480.2 1431.55,-1480.2 1431.55,-1480.2 1425.55,-1480.2 1419.55,-1474.2 1419.55,-1468.2 1419.55,-1468.2 1419.55,-1413.4 1419.55,-1413.4 1419.55,-1407.4 1425.55,-1401.4 1431.55,-1401.4 1431.55,-1401.4 1533.03,-1401.4 1533.03,-1401.4 1539.03,-1401.4 1545.03,-1407.4 1545.03,-1413.4 1545.03,-1413.4 1545.03,-1468.2 1545.03,-1468.2 1545.03,-1474.2 1539.03,-1480.2 1533.03,-1480.2"/>
<text text-anchor="middle" x="1482.29" y="-1453.4" font-family="Arial" font-size="14.00">Adversary is</text>
<text text-anchor="middle" x="1482.29" y="-1436.6" font-family="Arial" font-size="14.00">locally targeting</text>
<text text-anchor="middle" x="1482.29" y="-1419.8" font-family="Arial" font-size="14.00">the device.</text>
</g>
<!-- reality&#45;&gt;local_device -->
<g id="edge52" class="edge">
<title>reality&#45;&gt;local_device</title>
<path fill="none" stroke="#2b303a" d="M1424.71,-1517.27C1431.3,-1508.64 1439.16,-1498.34 1446.92,-1488.16"/>
<polygon fill="#2b303a" stroke="#2b303a" points="1449.82,-1490.13 1453.1,-1480.06 1444.25,-1485.89 1449.82,-1490.13"/>
</g>
<!-- application -->
<g id="node6" class="node">
<title>application</title>
<path fill="#d2d5dd" stroke="transparent" d="M1687.31,-1480.2C1687.31,-1480.2 1571.27,-1480.2 1571.27,-1480.2 1565.27,-1480.2 1559.27,-1474.2 1559.27,-1468.2 1559.27,-1468.2 1559.27,-1413.4 1559.27,-1413.4 1559.27,-1407.4 1565.27,-1401.4 1571.27,-1401.4 1571.27,-1401.4 1687.31,-1401.4 1687.31,-1401.4 1693.31,-1401.4 1699.31,-1407.4 1699.31,-1413.4 1699.31,-1413.4 1699.31,-1468.2 1699.31,-1468.2 1699.31,-1474.2 1693.31,-1480.2 1687.31,-1480.2"/>
<text text-anchor="middle" x="1629.29" y="-1453.4" font-family="Arial" font-size="14.00">Adversary is</text>
<text text-anchor="middle" x="1629.29" y="-1436.6" font-family="Arial" font-size="14.00">remotely targeting</text>
<text text-anchor="middle" x="1629.29" y="-1419.8" font-family="Arial" font-size="14.00">the application.</text>
</g>
<!-- reality&#45;&gt;application -->
<g id="edge53" class="edge">
<title>reality&#45;&gt;application</title>
<path fill="none" stroke="#2b303a" d="M1443.72,-1528.66C1473.38,-1519.64 1516.47,-1505.28 1552.29,-1488.4 1554.72,-1487.25 1557.18,-1486.05 1559.64,-1484.8"/>
<polygon fill="#2b303a" stroke="#2b303a" points="1561.33,-1487.87 1568.56,-1480.12 1558.08,-1481.67 1561.33,-1487.87"/>
</g>
<!-- network -->
<g id="node7" class="node">
<title>network</title>
<path fill="#d2d5dd" stroke="transparent" d="M1837.15,-1488.5C1837.15,-1488.5 1725.43,-1488.5 1725.43,-1488.5 1719.43,-1488.5 1713.43,-1482.5 1713.43,-1476.5 1713.43,-1476.5 1713.43,-1405.1 1713.43,-1405.1 1713.43,-1399.1 1719.43,-1393.1 1725.43,-1393.1 1725.43,-1393.1 1837.15,-1393.1 1837.15,-1393.1 1843.15,-1393.1 1849.15,-1399.1 1849.15,-1405.1 1849.15,-1405.1 1849.15,-1476.5 1849.15,-1476.5 1849.15,-1482.5 1843.15,-1488.5 1837.15,-1488.5"/>
<text text-anchor="middle" x="1781.29" y="-1461.8" font-family="Arial" font-size="14.00">Adversary is</text>
<text text-anchor="middle" x="1781.29" y="-1445" font-family="Arial" font-size="14.00">targeting network</text>
<text text-anchor="middle" x="1781.29" y="-1428.2" font-family="Arial" font-size="14.00">infrastructure.</text>
<text text-anchor="middle" x="1781.29" y="-1411.4" font-family="Arial" font-size="14.00">(Active MITM)</text>
</g>
<!-- reality&#45;&gt;network -->
<g id="edge54" class="edge">
<title>reality&#45;&gt;network</title>
<path fill="none" stroke="#2b303a" d="M1443.85,-1537.22C1499.09,-1533.83 1608.4,-1523.37 1703.71,-1489.09"/>
<polygon fill="#2b303a" stroke="#2b303a" points="1705.01,-1492.34 1713.18,-1485.59 1702.59,-1485.77 1705.01,-1492.34"/>
</g>
<!-- password&#45;&gt;pw_reset -->
<!-- password_spray -->
<g id="node22" class="node">
<title>password_spray</title>
<path fill="#ffa6d5" stroke="transparent" d="M136.37,-1164.6C136.37,-1164.6 12.21,-1164.6 12.21,-1164.6 6.21,-1164.6 0.21,-1158.6 0.21,-1152.6 0.21,-1152.6 0.21,-1097.8 0.21,-1097.8 0.21,-1091.8 6.21,-1085.8 12.21,-1085.8 12.21,-1085.8 136.37,-1085.8 136.37,-1085.8 142.37,-1085.8 148.37,-1091.8 148.37,-1097.8 148.37,-1097.8 148.37,-1152.6 148.37,-1152.6 148.37,-1158.6 142.37,-1164.6 136.37,-1164.6"/>
<text text-anchor="middle" x="74.29" y="-1137.8" font-family="Arial" font-size="14.00">Adversary attempts</text>
<text text-anchor="middle" x="74.29" y="-1121" font-family="Arial" font-size="14.00">common password</text>
<text text-anchor="middle" x="74.29" y="-1104.2" font-family="Arial" font-size="14.00">across all accounts</text>
</g>
<!-- password&#45;&gt;password_spray -->
<g id="edge23" class="edge">
<title>password&#45;&gt;password_spray</title>
<path fill="none" stroke="#2b303a" d="M607.16,-1437.17C529.25,-1431.65 405.21,-1414.84 311.29,-1364.2 224.15,-1317.21 148.35,-1227.86 107.17,-1173.01"/>
<polygon fill="#2b303a" stroke="#2b303a" points="109.88,-1170.79 101.11,-1164.85 104.26,-1174.96 109.88,-1170.79"/>
</g>
<!-- dictionary_attack -->
<g id="node23" class="node">
<title>dictionary_attack</title>
<path fill="#ffa6d5" stroke="transparent" d="M303.75,-1189.5C303.75,-1189.5 174.83,-1189.5 174.83,-1189.5 168.83,-1189.5 162.83,-1183.5 162.83,-1177.5 162.83,-1177.5 162.83,-1072.9 162.83,-1072.9 162.83,-1066.9 168.83,-1060.9 174.83,-1060.9 174.83,-1060.9 303.75,-1060.9 303.75,-1060.9 309.75,-1060.9 315.75,-1066.9 315.75,-1072.9 315.75,-1072.9 315.75,-1177.5 315.75,-1177.5 315.75,-1183.5 309.75,-1189.5 303.75,-1189.5"/>
<text text-anchor="middle" x="239.29" y="-1163" font-family="Arial" font-size="14.00">Adversary attempts</text>
<text text-anchor="middle" x="239.29" y="-1146.2" font-family="Arial" font-size="14.00">common passwords</text>
<text text-anchor="middle" x="239.29" y="-1129.4" font-family="Arial" font-size="14.00">(dictionary,</text>
<text text-anchor="middle" x="239.29" y="-1112.6" font-family="Arial" font-size="14.00">statistical)</text>
<text text-anchor="middle" x="239.29" y="-1095.8" font-family="Arial" font-size="14.00">against the</text>
<text text-anchor="middle" x="239.29" y="-1079" font-family="Arial" font-size="14.00">account.</text>
</g>
<!-- password&#45;&gt;dictionary_attack -->
<g id="edge24" class="edge">
<title>password&#45;&gt;dictionary_attack</title>
<path fill="none" stroke="#2b303a" d="M607.08,-1421.99C565.09,-1409.79 512.83,-1390.94 471.29,-1364.2 401.6,-1319.35 337.08,-1249.91 293.87,-1197.59"/>
<polygon fill="#2b303a" stroke="#2b303a" points="296.43,-1195.19 287.38,-1189.67 291.01,-1199.63 296.43,-1195.19"/>
</g>
<!-- reused_password -->
<g id="node24" class="node">
<title>reused_password</title>
<path fill="#ffa6d5" stroke="transparent" d="M465.08,-1172.9C465.08,-1172.9 341.49,-1172.9 341.49,-1172.9 335.49,-1172.9 329.49,-1166.9 329.49,-1160.9 329.49,-1160.9 329.49,-1089.5 329.49,-1089.5 329.49,-1083.5 335.49,-1077.5 341.49,-1077.5 341.49,-1077.5 465.08,-1077.5 465.08,-1077.5 471.08,-1077.5 477.08,-1083.5 477.08,-1089.5 477.08,-1089.5 477.08,-1160.9 477.08,-1160.9 477.08,-1166.9 471.08,-1172.9 465.08,-1172.9"/>
<text text-anchor="middle" x="403.29" y="-1146.2" font-family="Arial" font-size="14.00">Adversary acquires</text>
<text text-anchor="middle" x="403.29" y="-1129.4" font-family="Arial" font-size="14.00">re&#45;used password</text>
<text text-anchor="middle" x="403.29" y="-1112.6" font-family="Arial" font-size="14.00">from a related</text>
<text text-anchor="middle" x="403.29" y="-1095.8" font-family="Arial" font-size="14.00">breach.</text>
</g>
<!-- password&#45;&gt;reused_password -->
<g id="edge25" class="edge">
<title>password&#45;&gt;reused_password</title>
<path fill="none" stroke="#2b303a" d="M645.37,-1410.13C629.75,-1396.66 611.57,-1380.19 596.29,-1364.2 539.72,-1304.99 481.4,-1230.94 443.89,-1181.3"/>
<polygon fill="#2b303a" stroke="#2b303a" points="446.63,-1179.12 437.82,-1173.24 441.04,-1183.33 446.63,-1179.12"/>
</g>
<!-- brute_force -->
<g id="node25" class="node">
<title>brute_force</title>
<path fill="#ffa6d5" stroke="transparent" d="M627.37,-1155.8C627.37,-1155.8 503.21,-1155.8 503.21,-1155.8 497.21,-1155.8 491.21,-1149.8 491.21,-1143.8 491.21,-1143.8 491.21,-1106.6 491.21,-1106.6 491.21,-1100.6 497.21,-1094.6 503.21,-1094.6 503.21,-1094.6 627.37,-1094.6 627.37,-1094.6 633.37,-1094.6 639.37,-1100.6 639.37,-1106.6 639.37,-1106.6 639.37,-1143.8 639.37,-1143.8 639.37,-1149.8 633.37,-1155.8 627.37,-1155.8"/>
<text text-anchor="middle" x="565.29" y="-1129.4" font-family="Arial" font-size="14.00">Adversary attempts</text>
<text text-anchor="middle" x="565.29" y="-1112.6" font-family="Arial" font-size="14.00">all passwords.</text>
</g>
<!-- password&#45;&gt;brute_force -->
<g id="edge26" class="edge">
<title>password&#45;&gt;brute_force</title>
<path fill="none" stroke="#2b303a" d="M670.27,-1410.01C649.28,-1353.27 603.56,-1229.66 579.99,-1165.94"/>
<polygon fill="#2b303a" stroke="#2b303a" points="583.15,-1164.41 576.4,-1156.25 576.59,-1166.84 583.15,-1164.41"/>
</g>
<!-- host_executable_remote -->
<g id="node26" class="node">
<title>host_executable_remote</title>
<path fill="#ffa6d5" stroke="transparent" d="M792.97,-1181.2C792.97,-1181.2 665.61,-1181.2 665.61,-1181.2 659.61,-1181.2 653.61,-1175.2 653.61,-1169.2 653.61,-1169.2 653.61,-1081.2 653.61,-1081.2 653.61,-1075.2 659.61,-1069.2 665.61,-1069.2 665.61,-1069.2 792.97,-1069.2 792.97,-1069.2 798.97,-1069.2 804.97,-1075.2 804.97,-1081.2 804.97,-1081.2 804.97,-1169.2 804.97,-1169.2 804.97,-1175.2 798.97,-1181.2 792.97,-1181.2"/>
<text text-anchor="middle" x="729.29" y="-1154.6" font-family="Arial" font-size="14.00">The target is</text>
<text text-anchor="middle" x="729.29" y="-1137.8" font-family="Arial" font-size="14.00">keylogged.</text>
<text text-anchor="middle" x="729.29" y="-1121" font-family="Arial" font-size="14.00">(Passwords exfil&#39;d</text>
<text text-anchor="middle" x="729.29" y="-1104.2" font-family="Arial" font-size="14.00">remotely. No device</text>
<text text-anchor="middle" x="729.29" y="-1087.4" font-family="Arial" font-size="14.00">usage.)</text>
</g>
<!-- password&#45;&gt;host_executable_remote -->
<g id="edge27" class="edge">
<title>password&#45;&gt;host_executable_remote</title>
<path fill="none" stroke="#2b303a" d="M685.85,-1410.01C693.48,-1360.13 709.03,-1258.58 719.3,-1191.46"/>
<polygon fill="#2b303a" stroke="#2b303a" points="722.78,-1191.83 720.84,-1181.41 715.86,-1190.77 722.78,-1191.83"/>
</g>
<!-- credential_phishing -->
<g id="node27" class="node">
<title>credential_phishing</title>
<path fill="#ffa6d5" stroke="transparent" d="M980.91,-1164.6C980.91,-1164.6 861.66,-1164.6 861.66,-1164.6 855.66,-1164.6 849.66,-1158.6 849.66,-1152.6 849.66,-1152.6 849.66,-1097.8 849.66,-1097.8 849.66,-1091.8 855.66,-1085.8 861.66,-1085.8 861.66,-1085.8 980.91,-1085.8 980.91,-1085.8 986.91,-1085.8 992.91,-1091.8 992.91,-1097.8 992.91,-1097.8 992.91,-1152.6 992.91,-1152.6 992.91,-1158.6 986.91,-1164.6 980.91,-1164.6"/>
<text text-anchor="middle" x="921.29" y="-1137.8" font-family="Arial" font-size="14.00">Target is delivered</text>
<text text-anchor="middle" x="921.29" y="-1121" font-family="Arial" font-size="14.00">credential</text>
<text text-anchor="middle" x="921.29" y="-1104.2" font-family="Arial" font-size="14.00">phishing.</text>
</g>
<!-- password&#45;&gt;credential_phishing -->
<g id="edge28" class="edge">
<title>password&#45;&gt;credential_phishing</title>
<path fill="none" stroke="#2b303a" d="M704.08,-1410.01C746.05,-1355.18 835.81,-1237.9 885.8,-1172.57"/>
<polygon fill="#2b303a" stroke="#2b303a" points="888.7,-1174.55 891.99,-1164.48 883.14,-1170.29 888.7,-1174.55"/>
</g>
<!-- pw_reset&#45;&gt;remote_device -->
<!-- social_engineer_support -->
<g id="node16" class="node">
<title>social_engineer_support</title>
<path fill="#ffa6d5" stroke="transparent" d="M1147.78,-1172.9C1147.78,-1172.9 1018.8,-1172.9 1018.8,-1172.9 1012.8,-1172.9 1006.8,-1166.9 1006.8,-1160.9 1006.8,-1160.9 1006.8,-1089.5 1006.8,-1089.5 1006.8,-1083.5 1012.8,-1077.5 1018.8,-1077.5 1018.8,-1077.5 1147.78,-1077.5 1147.78,-1077.5 1153.78,-1077.5 1159.78,-1083.5 1159.78,-1089.5 1159.78,-1089.5 1159.78,-1160.9 1159.78,-1160.9 1159.78,-1166.9 1153.78,-1172.9 1147.78,-1172.9"/>
<text text-anchor="middle" x="1083.29" y="-1146.2" font-family="Arial" font-size="14.00">Convince customer</text>
<text text-anchor="middle" x="1083.29" y="-1129.4" font-family="Arial" font-size="14.00">support that you are</text>
<text text-anchor="middle" x="1083.29" y="-1112.6" font-family="Arial" font-size="14.00">the proper account</text>
<text text-anchor="middle" x="1083.29" y="-1095.8" font-family="Arial" font-size="14.00">owner.</text>
</g>
<!-- pw_reset&#45;&gt;social_engineer_support -->
<g id="edge17" class="edge">
<title>pw_reset&#45;&gt;social_engineer_support</title>
<path fill="none" stroke="#2b303a" d="M1144.7,-1401.35C1132.49,-1346.62 1110.01,-1245.91 1095.9,-1182.7"/>
<polygon fill="#2b303a" stroke="#2b303a" points="1099.3,-1181.88 1093.71,-1172.88 1092.47,-1183.41 1099.3,-1181.88"/>
</g>
<!-- compromised_email -->
<g id="node17" class="node">
<title>compromised_email</title>
<path fill="#ffa6d5" stroke="transparent" d="M1301.29,-1164.6C1301.29,-1164.6 1185.28,-1164.6 1185.28,-1164.6 1179.28,-1164.6 1173.28,-1158.6 1173.28,-1152.6 1173.28,-1152.6 1173.28,-1097.8 1173.28,-1097.8 1173.28,-1091.8 1179.28,-1085.8 1185.28,-1085.8 1185.28,-1085.8 1301.29,-1085.8 1301.29,-1085.8 1307.29,-1085.8 1313.29,-1091.8 1313.29,-1097.8 1313.29,-1097.8 1313.29,-1152.6 1313.29,-1152.6 1313.29,-1158.6 1307.29,-1164.6 1301.29,-1164.6"/>
<text text-anchor="middle" x="1243.29" y="-1137.8" font-family="Arial" font-size="14.00">Registration email</text>
<text text-anchor="middle" x="1243.29" y="-1121" font-family="Arial" font-size="14.00">address is</text>
<text text-anchor="middle" x="1243.29" y="-1104.2" font-family="Arial" font-size="14.00">compromised</text>
</g>
<!-- pw_reset&#45;&gt;compromised_email -->
<g id="edge18" class="edge">
<title>pw_reset&#45;&gt;compromised_email</title>
<path fill="none" stroke="#2b303a" d="M1164.32,-1401.35C1180.73,-1344.18 1211.54,-1236.83 1229.44,-1174.46"/>
<polygon fill="#2b303a" stroke="#2b303a" points="1232.91,-1175.05 1232.3,-1164.48 1226.18,-1173.12 1232.91,-1175.05"/>
</g>
<!-- compromise_carrier -->
<g id="node32" class="node">
<title>compromise_carrier</title>
<path fill="#ffa6d5" stroke="transparent" d="M844.98,-642.4C844.98,-642.4 717.6,-642.4 717.6,-642.4 711.6,-642.4 705.6,-636.4 705.6,-630.4 705.6,-630.4 705.6,-458.4 705.6,-458.4 705.6,-452.4 711.6,-446.4 717.6,-446.4 717.6,-446.4 844.98,-446.4 844.98,-446.4 850.98,-446.4 856.98,-452.4 856.98,-458.4 856.98,-458.4 856.98,-630.4 856.98,-630.4 856.98,-636.4 850.98,-642.4 844.98,-642.4"/>
<text text-anchor="middle" x="781.29" y="-615.8" font-family="Arial" font-size="14.00">A variety of attacks</text>
<text text-anchor="middle" x="781.29" y="-599" font-family="Arial" font-size="14.00">against the carrier</text>
<text text-anchor="middle" x="781.29" y="-582.2" font-family="Arial" font-size="14.00">infrastructure</text>
<text text-anchor="middle" x="781.29" y="-565.4" font-family="Arial" font-size="14.00">that redirect a SMS.</text>
<text text-anchor="middle" x="781.29" y="-548.6" font-family="Arial" font-size="14.00">(Port, SIM Swap,</text>
<text text-anchor="middle" x="781.29" y="-531.8" font-family="Arial" font-size="14.00">Customer Support</text>
<text text-anchor="middle" x="781.29" y="-515" font-family="Arial" font-size="14.00">Social</text>
<text text-anchor="middle" x="781.29" y="-498.2" font-family="Arial" font-size="14.00">Engineering,</text>
<text text-anchor="middle" x="781.29" y="-481.4" font-family="Arial" font-size="14.00">sms&#45;to&#45;email</text>
<text text-anchor="middle" x="781.29" y="-464.6" font-family="Arial" font-size="14.00">delivery)</text>
</g>
<!-- pw_reset&#45;&gt;compromise_carrier -->
<g id="edge36" class="edge">
<title>pw_reset&#45;&gt;compromise_carrier</title>
<path fill="none" stroke="#2b303a" d="M1078.91,-1408.15C982.69,-1361.63 827.29,-1265.01 827.29,-1126.2 827.29,-1126.2 827.29,-1126.2 827.29,-842.2 827.29,-766 824.76,-746.58 812.29,-671.4 811.26,-665.2 810.09,-658.86 808.81,-652.48"/>
<polygon fill="#2b303a" stroke="#2b303a" points="812.19,-651.51 806.74,-642.43 805.33,-652.93 812.19,-651.51"/>
</g>
<!-- remote_device&#45;&gt;local_device -->
<!-- host_executable_malware_local -->
<g id="node29" class="node">
<title>host_executable_malware_local</title>
<path fill="#ffa6d5" stroke="transparent" d="M1152.02,-1023.5C1152.02,-1023.5 1036.55,-1023.5 1036.55,-1023.5 1030.55,-1023.5 1024.55,-1017.5 1024.55,-1011.5 1024.55,-1011.5 1024.55,-940.1 1024.55,-940.1 1024.55,-934.1 1030.55,-928.1 1036.55,-928.1 1036.55,-928.1 1152.02,-928.1 1152.02,-928.1 1158.02,-928.1 1164.02,-934.1 1164.02,-940.1 1164.02,-940.1 1164.02,-1011.5 1164.02,-1011.5 1164.02,-1017.5 1158.02,-1023.5 1152.02,-1023.5"/>
<text text-anchor="middle" x="1094.29" y="-996.8" font-family="Arial" font-size="14.00">Target is software</text>
<text text-anchor="middle" x="1094.29" y="-980" font-family="Arial" font-size="14.00">keylogged. Local</text>
<text text-anchor="middle" x="1094.29" y="-963.2" font-family="Arial" font-size="14.00">browser storage</text>
<text text-anchor="middle" x="1094.29" y="-946.4" font-family="Arial" font-size="14.00">lifted.</text>
</g>
<!-- remote_device&#45;&gt;host_executable_malware_local -->
<g id="edge32" class="edge">
<title>remote_device&#45;&gt;host_executable_malware_local</title>
<path fill="none" stroke="#2b303a" d="M1336.42,-1401.39C1338.72,-1310.17 1342.07,-1086.2 1320.29,-1060.8 1276.36,-1009.6 1233.26,-1058.46 1171.29,-1031.8 1168.76,-1030.71 1166.23,-1029.53 1163.71,-1028.27"/>
<polygon fill="#2b303a" stroke="#2b303a" points="1165.13,-1025.06 1154.67,-1023.41 1161.82,-1031.23 1165.13,-1025.06"/>
</g>
<!-- host_browser_extension_local -->
<g id="node30" class="node">
<title>host_browser_extension_local</title>
<path fill="#ffa6d5" stroke="transparent" d="M1316.43,-1031.8C1316.43,-1031.8 1190.15,-1031.8 1190.15,-1031.8 1184.15,-1031.8 1178.15,-1025.8 1178.15,-1019.8 1178.15,-1019.8 1178.15,-931.8 1178.15,-931.8 1178.15,-925.8 1184.15,-919.8 1190.15,-919.8 1190.15,-919.8 1316.43,-919.8 1316.43,-919.8 1322.43,-919.8 1328.43,-925.8 1328.43,-931.8 1328.43,-931.8 1328.43,-1019.8 1328.43,-1019.8 1328.43,-1025.8 1322.43,-1031.8 1316.43,-1031.8"/>
<text text-anchor="middle" x="1253.29" y="-1005.2" font-family="Arial" font-size="14.00">Target is keylogged</text>
<text text-anchor="middle" x="1253.29" y="-988.4" font-family="Arial" font-size="14.00">(browser</text>
<text text-anchor="middle" x="1253.29" y="-971.6" font-family="Arial" font-size="14.00">extension) and</text>
<text text-anchor="middle" x="1253.29" y="-954.8" font-family="Arial" font-size="14.00">local browser</text>
<text text-anchor="middle" x="1253.29" y="-938" font-family="Arial" font-size="14.00">storage abused.</text>
</g>
<!-- remote_device&#45;&gt;host_browser_extension_local -->
<g id="edge33" class="edge">
<title>remote_device&#45;&gt;host_browser_extension_local</title>
<path fill="none" stroke="#2b303a" d="M1346.85,-1401.41C1366.01,-1330.52 1397.4,-1175.85 1346.29,-1060.8 1343.03,-1053.46 1338.77,-1046.49 1333.88,-1039.94"/>
<polygon fill="#2b303a" stroke="#2b303a" points="1336.37,-1037.45 1327.37,-1031.86 1330.92,-1041.84 1336.37,-1037.45"/>
</g>
<!-- host_rogue_app_local -->
<g id="node31" class="node">
<title>host_rogue_app_local</title>
<path fill="#ffa6d5" stroke="transparent" d="M1470.04,-1015.2C1470.04,-1015.2 1354.54,-1015.2 1354.54,-1015.2 1348.54,-1015.2 1342.54,-1009.2 1342.54,-1003.2 1342.54,-1003.2 1342.54,-948.4 1342.54,-948.4 1342.54,-942.4 1348.54,-936.4 1354.54,-936.4 1354.54,-936.4 1470.04,-936.4 1470.04,-936.4 1476.04,-936.4 1482.04,-942.4 1482.04,-948.4 1482.04,-948.4 1482.04,-1003.2 1482.04,-1003.2 1482.04,-1009.2 1476.04,-1015.2 1470.04,-1015.2"/>
<text text-anchor="middle" x="1412.29" y="-988.4" font-family="Arial" font-size="14.00">Target is using an</text>
<text text-anchor="middle" x="1412.29" y="-971.6" font-family="Arial" font-size="14.00">imposter</text>
<text text-anchor="middle" x="1412.29" y="-954.8" font-family="Arial" font-size="14.00">application.</text>
</g>
<!-- remote_device&#45;&gt;host_rogue_app_local -->
<g id="edge34" class="edge">
<title>remote_device&#45;&gt;host_rogue_app_local</title>
<path fill="none" stroke="#2b303a" d="M1359.94,-1401.49C1366.3,-1389.93 1372.43,-1376.92 1376.29,-1364.2 1412.09,-1246.3 1415.15,-1099.72 1413.95,-1025.19"/>
<polygon fill="#2b303a" stroke="#2b303a" points="1417.45,-1025.1 1413.75,-1015.17 1410.45,-1025.23 1417.45,-1025.1"/>
</g>
<!-- local_device&#45;&gt;application -->
<!-- successful_ato -->
<g id="node40" class="node">
<title>successful_ato</title>
<path fill="#5f00c2" stroke="transparent" d="M1105.88,-61.4C1105.88,-61.4 974.69,-61.4 974.69,-61.4 968.69,-61.4 962.69,-55.4 962.69,-49.4 962.69,-49.4 962.69,-12.2 962.69,-12.2 962.69,-6.2 968.69,-0.2 974.69,-0.2 974.69,-0.2 1105.88,-0.2 1105.88,-0.2 1111.88,-0.2 1117.88,-6.2 1117.88,-12.2 1117.88,-12.2 1117.88,-49.4 1117.88,-49.4 1117.88,-55.4 1111.88,-61.4 1105.88,-61.4"/>
<text text-anchor="middle" x="1040.29" y="-35" font-family="Arial" font-size="14.00" fill="#ffffff">Account is accessed</text>
<text text-anchor="middle" x="1040.29" y="-18.2" font-family="Arial" font-size="14.00" fill="#ffffff">by adversary</text>
</g>
<!-- local_device&#45;&gt;successful_ato -->
<g id="edge4" class="edge">
<title>local_device&#45;&gt;successful_ato</title>
<path fill="none" stroke="#2b303a" d="M1484.68,-1401.49C1490.39,-1306.93 1504.29,-1054.77 1504.29,-844.2 1504.29,-844.2 1504.29,-844.2 1504.29,-244.6 1504.29,-196.78 1429.08,-99.52 1415.29,-90.6 1369.11,-60.72 1223.73,-44.81 1128.14,-37.35"/>
<polygon fill="#2b303a" stroke="#2b303a" points="1128.13,-33.84 1117.89,-36.57 1127.6,-40.82 1128.13,-33.84"/>
</g>
<!-- application&#45;&gt;network -->
<!-- session_weakness -->
<g id="node20" class="node">
<title>session_weakness</title>
<path fill="#ffa6d5" stroke="transparent" d="M1657.42,-1364C1657.42,-1364 1531.16,-1364 1531.16,-1364 1525.16,-1364 1519.16,-1358 1519.16,-1352 1519.16,-1352 1519.16,-1230.8 1519.16,-1230.8 1519.16,-1224.8 1525.16,-1218.8 1531.16,-1218.8 1531.16,-1218.8 1657.42,-1218.8 1657.42,-1218.8 1663.42,-1218.8 1669.42,-1224.8 1669.42,-1230.8 1669.42,-1230.8 1669.42,-1352 1669.42,-1352 1669.42,-1358 1663.42,-1364 1657.42,-1364"/>
<text text-anchor="middle" x="1594.29" y="-1337.6" font-family="Arial" font-size="14.00">Insecure session</text>
<text text-anchor="middle" x="1594.29" y="-1320.8" font-family="Arial" font-size="14.00">generation. The</text>
<text text-anchor="middle" x="1594.29" y="-1304" font-family="Arial" font-size="14.00">session can be</text>
<text text-anchor="middle" x="1594.29" y="-1287.2" font-family="Arial" font-size="14.00">guessed /</text>
<text text-anchor="middle" x="1594.29" y="-1270.4" font-family="Arial" font-size="14.00">predicted. The JWT</text>
<text text-anchor="middle" x="1594.29" y="-1253.6" font-family="Arial" font-size="14.00">signature is not</text>
<text text-anchor="middle" x="1594.29" y="-1236.8" font-family="Arial" font-size="14.00">checked.</text>
</g>
<!-- application&#45;&gt;session_weakness -->
<g id="edge21" class="edge">
<title>application&#45;&gt;session_weakness</title>
<path fill="none" stroke="#2b303a" d="M1620.18,-1401.46C1618.17,-1392.97 1615.96,-1383.67 1613.71,-1374.19"/>
<polygon fill="#2b303a" stroke="#2b303a" points="1617.07,-1373.19 1611.35,-1364.27 1610.26,-1374.8 1617.07,-1373.19"/>
</g>
<!-- app_weakness -->
<g id="node21" class="node">
<title>app_weakness</title>
<path fill="#ffa6d5" stroke="transparent" d="M1826.87,-1347.4C1826.87,-1347.4 1695.71,-1347.4 1695.71,-1347.4 1689.71,-1347.4 1683.71,-1341.4 1683.71,-1335.4 1683.71,-1335.4 1683.71,-1247.4 1683.71,-1247.4 1683.71,-1241.4 1689.71,-1235.4 1695.71,-1235.4 1695.71,-1235.4 1826.87,-1235.4 1826.87,-1235.4 1832.87,-1235.4 1838.87,-1241.4 1838.87,-1247.4 1838.87,-1247.4 1838.87,-1335.4 1838.87,-1335.4 1838.87,-1341.4 1832.87,-1347.4 1826.87,-1347.4"/>
<text text-anchor="middle" x="1761.29" y="-1320.8" font-family="Arial" font-size="14.00">Unknown</text>
<text text-anchor="middle" x="1761.29" y="-1304" font-family="Arial" font-size="14.00">vulnerabilities</text>
<text text-anchor="middle" x="1761.29" y="-1287.2" font-family="Arial" font-size="14.00">allow auth / pw reset</text>
<text text-anchor="middle" x="1761.29" y="-1270.4" font-family="Arial" font-size="14.00">mechanisms to</text>
<text text-anchor="middle" x="1761.29" y="-1253.6" font-family="Arial" font-size="14.00">misbehave.</text>
</g>
<!-- application&#45;&gt;app_weakness -->
<g id="edge22" class="edge">
<title>application&#45;&gt;app_weakness</title>
<path fill="none" stroke="#2b303a" d="M1663.63,-1401.46C1676.29,-1387.31 1691,-1370.88 1705.1,-1355.14"/>
<polygon fill="#2b303a" stroke="#2b303a" points="1707.9,-1357.26 1711.96,-1347.48 1702.69,-1352.59 1707.9,-1357.26"/>
</g>
<!-- network&#45;&gt;credential_phishing -->
<g id="edge29" class="edge">
<title>network&#45;&gt;credential_phishing</title>
<path fill="none" stroke="#2b303a" d="M1713.2,-1395.95C1710.9,-1394.97 1708.59,-1394.05 1706.29,-1393.2 1624.46,-1363.13 1597,-1384.8 1512.29,-1364.2 1278.67,-1307.4 1210.99,-1305.38 1000.29,-1189.6 990.61,-1184.28 980.93,-1177.76 971.83,-1170.94"/>
<polygon fill="#2b303a" stroke="#2b303a" points="973.7,-1167.97 963.65,-1164.63 969.42,-1173.51 973.7,-1167.97"/>
</g>
<!-- session_exposure -->
<g id="node28" class="node">
<title>session_exposure</title>
<path fill="#ffa6d5" stroke="transparent" d="M1822.77,-1181.2C1822.77,-1181.2 1707.81,-1181.2 1707.81,-1181.2 1701.81,-1181.2 1695.81,-1175.2 1695.81,-1169.2 1695.81,-1169.2 1695.81,-1081.2 1695.81,-1081.2 1695.81,-1075.2 1701.81,-1069.2 1707.81,-1069.2 1707.81,-1069.2 1822.77,-1069.2 1822.77,-1069.2 1828.77,-1069.2 1834.77,-1075.2 1834.77,-1081.2 1834.77,-1081.2 1834.77,-1169.2 1834.77,-1169.2 1834.77,-1175.2 1828.77,-1181.2 1822.77,-1181.2"/>
<text text-anchor="middle" x="1765.29" y="-1154.6" font-family="Arial" font-size="14.00">Session</text>
<text text-anchor="middle" x="1765.29" y="-1137.8" font-family="Arial" font-size="14.00">information</text>
<text text-anchor="middle" x="1765.29" y="-1121" font-family="Arial" font-size="14.00">(tokens, cookies,</text>
<text text-anchor="middle" x="1765.29" y="-1104.2" font-family="Arial" font-size="14.00">auth headers) are</text>
<text text-anchor="middle" x="1765.29" y="-1087.4" font-family="Arial" font-size="14.00">exposed.</text>
</g>
<!-- network&#45;&gt;session_exposure -->
<g id="edge30" class="edge">
<title>network&#45;&gt;session_exposure</title>
<path fill="none" stroke="#2b303a" d="M1829.95,-1393.12C1836.64,-1384.2 1842.5,-1374.42 1846.29,-1364.2 1868.79,-1303.53 1869.08,-1279.17 1846.29,-1218.6 1842.46,-1208.43 1836.96,-1198.66 1830.59,-1189.52"/>
<polygon fill="#2b303a" stroke="#2b303a" points="1833.28,-1187.27 1824.52,-1181.31 1827.65,-1191.43 1833.28,-1187.27"/>
</g>
<!-- sms_redirected -->
<g id="node8" class="node">
<title>sms_redirected</title>
<path fill="#d2d5dd" stroke="transparent" d="M678.89,-592.1C678.89,-592.1 561.69,-592.1 561.69,-592.1 555.69,-592.1 549.69,-586.1 549.69,-580.1 549.69,-580.1 549.69,-508.7 549.69,-508.7 549.69,-502.7 555.69,-496.7 561.69,-496.7 561.69,-496.7 678.89,-496.7 678.89,-496.7 684.89,-496.7 690.89,-502.7 690.89,-508.7 690.89,-508.7 690.89,-580.1 690.89,-580.1 690.89,-586.1 684.89,-592.1 678.89,-592.1"/>
<text text-anchor="middle" x="620.29" y="-565.4" font-family="Arial" font-size="14.00">Target happens to</text>
<text text-anchor="middle" x="620.29" y="-548.6" font-family="Arial" font-size="14.00">redirect SMS</text>
<text text-anchor="middle" x="620.29" y="-531.8" font-family="Arial" font-size="14.00">elsewhere</text>
<text text-anchor="middle" x="620.29" y="-515" font-family="Arial" font-size="14.00">(email)</text>
</g>
<!-- compromise_email -->
<g id="node15" class="node">
<title>compromise_email</title>
<path fill="#ffa6d5" stroke="transparent" d="M829.33,-169.2C829.33,-169.2 705.24,-169.2 705.24,-169.2 699.24,-169.2 693.24,-163.2 693.24,-157.2 693.24,-157.2 693.24,-102.4 693.24,-102.4 693.24,-96.4 699.24,-90.4 705.24,-90.4 705.24,-90.4 829.33,-90.4 829.33,-90.4 835.33,-90.4 841.33,-96.4 841.33,-102.4 841.33,-102.4 841.33,-157.2 841.33,-157.2 841.33,-163.2 835.33,-169.2 829.33,-169.2"/>
<text text-anchor="middle" x="767.29" y="-142.4" font-family="Arial" font-size="14.00">Compromise email,</text>
<text text-anchor="middle" x="767.29" y="-125.6" font-family="Arial" font-size="14.00">lift SMS codes or</text>
<text text-anchor="middle" x="767.29" y="-108.8" font-family="Arial" font-size="14.00">confirm devices.</text>
</g>
<!-- sms_redirected&#45;&gt;compromise_email -->
<g id="edge15" class="edge">
<title>sms_redirected&#45;&gt;compromise_email</title>
<path fill="none" stroke="#2b303a" d="M637.01,-496.47C665.15,-417.48 721.7,-258.77 750.13,-178.96"/>
<polygon fill="#2b303a" stroke="#2b303a" points="753.56,-179.76 753.62,-169.16 746.97,-177.41 753.56,-179.76"/>
</g>
<!-- sms_redirected&#45;&gt;compromise_carrier -->
<!-- mfa_enabled -->
<g id="node9" class="node">
<title>mfa_enabled</title>
<path fill="#d2d5dd" stroke="transparent" d="M1139.93,-890.9C1139.93,-890.9 1048.64,-890.9 1048.64,-890.9 1042.64,-890.9 1036.64,-884.9 1036.64,-878.9 1036.64,-878.9 1036.64,-807.5 1036.64,-807.5 1036.64,-801.5 1042.64,-795.5 1048.64,-795.5 1048.64,-795.5 1139.93,-795.5 1139.93,-795.5 1145.93,-795.5 1151.93,-801.5 1151.93,-807.5 1151.93,-807.5 1151.93,-878.9 1151.93,-878.9 1151.93,-884.9 1145.93,-890.9 1139.93,-890.9"/>
<text text-anchor="middle" x="1094.29" y="-864.2" font-family="Arial" font-size="14.00">Target has</text>
<text text-anchor="middle" x="1094.29" y="-847.4" font-family="Arial" font-size="14.00">additional</text>
<text text-anchor="middle" x="1094.29" y="-830.6" font-family="Arial" font-size="14.00">authentication</text>
<text text-anchor="middle" x="1094.29" y="-813.8" font-family="Arial" font-size="14.00">options.</text>
</g>
<!-- token_mfa_device_successful -->
<g id="node12" class="node">
<title>token_mfa_device_successful</title>
<path fill="#d2d5dd" stroke="transparent" d="M1317,-873.8C1317,-873.8 1189.58,-873.8 1189.58,-873.8 1183.58,-873.8 1177.58,-867.8 1177.58,-861.8 1177.58,-861.8 1177.58,-824.6 1177.58,-824.6 1177.58,-818.6 1183.58,-812.6 1189.58,-812.6 1189.58,-812.6 1317,-812.6 1317,-812.6 1323,-812.6 1329,-818.6 1329,-824.6 1329,-824.6 1329,-861.8 1329,-861.8 1329,-867.8 1323,-873.8 1317,-873.8"/>
<text text-anchor="middle" x="1253.29" y="-847.4" font-family="Arial" font-size="14.00">Password + token +</text>
<text text-anchor="middle" x="1253.29" y="-830.6" font-family="Arial" font-size="14.00">device is correct</text>
</g>
<!-- mfa_enabled&#45;&gt;token_mfa_device_successful -->
<!-- mfa_enabled&#45;&gt;token_mfa_device_successful -->
<!-- sms_mfa -->
<g id="node37" class="node">
<title>sms_mfa</title>
<path fill="#b9d6f2" stroke="transparent" d="M793.77,-749.6C793.77,-749.6 678.8,-749.6 678.8,-749.6 672.8,-749.6 666.8,-743.6 666.8,-737.6 666.8,-737.6 666.8,-700.4 666.8,-700.4 666.8,-694.4 672.8,-688.4 678.8,-688.4 678.8,-688.4 793.77,-688.4 793.77,-688.4 799.77,-688.4 805.77,-694.4 805.77,-700.4 805.77,-700.4 805.77,-737.6 805.77,-737.6 805.77,-743.6 799.77,-749.6 793.77,-749.6"/>
<text text-anchor="middle" x="736.29" y="-723.2" font-family="Arial" font-size="14.00">SMS based token</text>
<text text-anchor="middle" x="736.29" y="-706.4" font-family="Arial" font-size="14.00">required</text>
</g>
<!-- mfa_enabled&#45;&gt;sms_mfa -->
<g id="edge45" class="edge">
<title>mfa_enabled&#45;&gt;sms_mfa</title>
<path fill="none" stroke="#2b303a" d="M1036.37,-822.43C976.39,-801.96 882.26,-769.83 815.44,-747.02"/>
<polygon fill="#2b303a" stroke="#2b303a" points="816.38,-743.64 805.78,-743.72 814.12,-750.26 816.38,-743.64"/>
</g>
<!-- totp_mfa -->
<g id="node38" class="node">
<title>totp_mfa</title>
<path fill="#b9d6f2" stroke="transparent" d="M1132.29,-749.6C1132.29,-749.6 1002.28,-749.6 1002.28,-749.6 996.28,-749.6 990.28,-743.6 990.28,-737.6 990.28,-737.6 990.28,-700.4 990.28,-700.4 990.28,-694.4 996.28,-688.4 1002.28,-688.4 1002.28,-688.4 1132.29,-688.4 1132.29,-688.4 1138.29,-688.4 1144.29,-694.4 1144.29,-700.4 1144.29,-700.4 1144.29,-737.6 1144.29,-737.6 1144.29,-743.6 1138.29,-749.6 1132.29,-749.6"/>
<text text-anchor="middle" x="1067.29" y="-723.2" font-family="Arial" font-size="14.00">TOTP MFA required</text>
<text text-anchor="middle" x="1067.29" y="-706.4" font-family="Arial" font-size="14.00">(Rotating codes)</text>
</g>
<!-- mfa_enabled&#45;&gt;totp_mfa -->
<g id="edge47" class="edge">
<title>mfa_enabled&#45;&gt;totp_mfa</title>
<path fill="none" stroke="#2b303a" d="M1083.93,-795.3C1081.33,-783.55 1078.57,-771.06 1076.06,-759.7"/>
<polygon fill="#2b303a" stroke="#2b303a" points="1079.41,-758.65 1073.84,-749.64 1072.58,-760.16 1079.41,-758.65"/>
</g>
<!-- device_mfa -->
<g id="node39" class="node">
<title>device_mfa</title>
<path fill="#b9d6f2" stroke="transparent" d="M1279.81,-766.7C1279.81,-766.7 1170.76,-766.7 1170.76,-766.7 1164.76,-766.7 1158.76,-760.7 1158.76,-754.7 1158.76,-754.7 1158.76,-683.3 1158.76,-683.3 1158.76,-677.3 1164.76,-671.3 1170.76,-671.3 1170.76,-671.3 1279.81,-671.3 1279.81,-671.3 1285.81,-671.3 1291.81,-677.3 1291.81,-683.3 1291.81,-683.3 1291.81,-754.7 1291.81,-754.7 1291.81,-760.7 1285.81,-766.7 1279.81,-766.7"/>
<text text-anchor="middle" x="1225.29" y="-740" font-family="Arial" font-size="14.00">Authentication</text>
<text text-anchor="middle" x="1225.29" y="-723.2" font-family="Arial" font-size="14.00">device required</text>
<text text-anchor="middle" x="1225.29" y="-706.4" font-family="Arial" font-size="14.00">(smart card,</text>
<text text-anchor="middle" x="1225.29" y="-689.6" font-family="Arial" font-size="14.00">yubikey, touchid)</text>
</g>
<!-- mfa_enabled&#45;&gt;device_mfa -->
<g id="edge48" class="edge">
<title>mfa_enabled&#45;&gt;device_mfa</title>
<path fill="none" stroke="#2b303a" d="M1144.56,-795.3C1152.03,-788.34 1159.78,-781.11 1167.39,-774.01"/>
<polygon fill="#2b303a" stroke="#2b303a" points="1170.01,-776.35 1174.93,-766.97 1165.23,-771.23 1170.01,-776.35"/>
</g>
<!-- password_successful -->
<g id="node10" class="node">
<title>password_successful</title>
<path fill="#d2d5dd" stroke="transparent" d="M486.4,-998.1C486.4,-998.1 360.17,-998.1 360.17,-998.1 354.17,-998.1 348.17,-992.1 348.17,-986.1 348.17,-986.1 348.17,-965.5 348.17,-965.5 348.17,-959.5 354.17,-953.5 360.17,-953.5 360.17,-953.5 486.4,-953.5 486.4,-953.5 492.4,-953.5 498.4,-959.5 498.4,-965.5 498.4,-965.5 498.4,-986.1 498.4,-986.1 498.4,-992.1 492.4,-998.1 486.4,-998.1"/>
<text text-anchor="middle" x="423.29" y="-971.6" font-family="Arial" font-size="14.00">Password is correct</text>
</g>
<!-- password_successful&#45;&gt;mfa_enabled -->
<g id="edge56" class="edge">
<title>password_successful&#45;&gt;mfa_enabled</title>
<path fill="none" stroke="#2b303a" d="M448.52,-953.36C463.93,-941.48 484.59,-927.57 505.29,-919.8 599.47,-884.43 892.38,-859.05 1026.27,-848.99"/>
<polygon fill="#2b303a" stroke="#2b303a" points="1026.69,-852.47 1036.4,-848.23 1026.17,-845.48 1026.69,-852.47"/>
</g>
<!-- rate_limiting -->
<g id="node33" class="node">
<title>rate_limiting</title>
<path fill="#b9d6f2" stroke="transparent" d="M606.07,-998.1C606.07,-998.1 524.51,-998.1 524.51,-998.1 518.51,-998.1 512.51,-992.1 512.51,-986.1 512.51,-986.1 512.51,-965.5 512.51,-965.5 512.51,-959.5 518.51,-953.5 524.51,-953.5 524.51,-953.5 606.07,-953.5 606.07,-953.5 612.07,-953.5 618.07,-959.5 618.07,-965.5 618.07,-965.5 618.07,-986.1 618.07,-986.1 618.07,-992.1 612.07,-998.1 606.07,-998.1"/>
<text text-anchor="middle" x="565.29" y="-971.6" font-family="Arial" font-size="14.00">Rate limited.</text>
</g>
<!-- password_successful&#45;&gt;rate_limiting -->
<!-- password_successful&#45;&gt;rate_limiting -->
<!-- unique_complex_password -->
<g id="node34" class="node">
<title>unique_complex_password</title>
<path fill="#b9d6f2" stroke="transparent" d="M764.23,-1015.2C764.23,-1015.2 644.35,-1015.2 644.35,-1015.2 638.35,-1015.2 632.35,-1009.2 632.35,-1003.2 632.35,-1003.2 632.35,-948.4 632.35,-948.4 632.35,-942.4 638.35,-936.4 644.35,-936.4 644.35,-936.4 764.23,-936.4 764.23,-936.4 770.23,-936.4 776.23,-942.4 776.23,-948.4 776.23,-948.4 776.23,-1003.2 776.23,-1003.2 776.23,-1009.2 770.23,-1015.2 764.23,-1015.2"/>
<text text-anchor="middle" x="704.29" y="-988.4" font-family="Arial" font-size="14.00">The password is</text>
<text text-anchor="middle" x="704.29" y="-971.6" font-family="Arial" font-size="14.00">unique, complex,</text>
<text text-anchor="middle" x="704.29" y="-954.8" font-family="Arial" font-size="14.00">and hard to guess.</text>
</g>
<!-- password_successful&#45;&gt;unique_complex_password -->
<!-- device_confirmation -->
<g id="node35" class="node">
<title>device_confirmation</title>
<path fill="#b9d6f2" stroke="transparent" d="M676.88,-293.3C676.88,-293.3 559.7,-293.3 559.7,-293.3 553.7,-293.3 547.7,-287.3 547.7,-281.3 547.7,-281.3 547.7,-209.9 547.7,-209.9 547.7,-203.9 553.7,-197.9 559.7,-197.9 559.7,-197.9 676.88,-197.9 676.88,-197.9 682.88,-197.9 688.88,-203.9 688.88,-209.9 688.88,-209.9 688.88,-281.3 688.88,-281.3 688.88,-287.3 682.88,-293.3 676.88,-293.3"/>
<text text-anchor="middle" x="618.29" y="-266.6" font-family="Arial" font-size="14.00">Platform requires</text>
<text text-anchor="middle" x="618.29" y="-249.8" font-family="Arial" font-size="14.00">reasonable device</text>
<text text-anchor="middle" x="618.29" y="-233" font-family="Arial" font-size="14.00">confirmation</text>
<text text-anchor="middle" x="618.29" y="-216.2" font-family="Arial" font-size="14.00">(AuthTables)</text>
</g>
<!-- password_successful&#45;&gt;device_confirmation -->
<g id="edge42" class="edge">
<title>password_successful&#45;&gt;device_confirmation</title>
<path fill="none" stroke="#2b303a" d="M427.95,-953.45C437.04,-909.82 456.29,-807.2 456.29,-720 456.29,-720 456.29,-720 456.29,-543.4 456.29,-449.49 519.55,-357.05 567.01,-300.91"/>
<polygon fill="#2b303a" stroke="#2b303a" points="569.74,-303.1 573.59,-293.23 564.43,-298.55 569.74,-303.1"/>
</g>
<!-- password_successful&#45;&gt;sms_mfa -->
<g id="edge46" class="edge">
<title>password_successful&#45;&gt;sms_mfa</title>
<path fill="none" stroke="#2b303a" d="M449.7,-953.3C503.45,-909.54 626.02,-809.76 692.11,-755.96"/>
<polygon fill="#2b303a" stroke="#2b303a" points="694.34,-758.67 699.88,-749.64 689.92,-753.24 694.34,-758.67"/>
</g>
<!-- password_successful&#45;&gt;successful_ato -->
<g id="edge1" class="edge">
<title>password_successful&#45;&gt;successful_ato</title>
<path fill="none" stroke="#2b303a" d="M423.57,-953.32C424.12,-909.48 425.29,-806.48 425.29,-720 425.29,-720 425.29,-720 425.29,-244.6 425.29,-169.96 432.14,-134.8 492.29,-90.6 528.5,-63.99 806.69,-44.77 952.19,-36.42"/>
<polygon fill="#2b303a" stroke="#2b303a" points="952.65,-39.9 962.44,-35.84 952.25,-32.91 952.65,-39.9"/>
</g>
<!-- token_mfa_successful -->
<g id="node11" class="node">
<title>token_mfa_successful</title>
<path fill="#d2d5dd" stroke="transparent" d="M874.93,-400.4C874.93,-400.4 745.64,-400.4 745.64,-400.4 739.64,-400.4 733.64,-394.4 733.64,-388.4 733.64,-388.4 733.64,-351.2 733.64,-351.2 733.64,-345.2 739.64,-339.2 745.64,-339.2 745.64,-339.2 874.93,-339.2 874.93,-339.2 880.93,-339.2 886.93,-345.2 886.93,-351.2 886.93,-351.2 886.93,-388.4 886.93,-388.4 886.93,-394.4 880.93,-400.4 874.93,-400.4"/>
<text text-anchor="middle" x="810.29" y="-374" font-family="Arial" font-size="14.00">Password + token is</text>
<text text-anchor="middle" x="810.29" y="-357.2" font-family="Arial" font-size="14.00">correct</text>
</g>
<!-- token_mfa_successful&#45;&gt;device_confirmation -->
<g id="edge43" class="edge">
<title>token_mfa_successful&#45;&gt;device_confirmation</title>
<path fill="none" stroke="#2b303a" d="M763.32,-338.91C743.53,-326.31 719.95,-311.3 697.61,-297.08"/>
<polygon fill="#2b303a" stroke="#2b303a" points="699.43,-294.09 689.11,-291.68 695.67,-300 699.43,-294.09"/>
</g>
<!-- token_mfa_successful&#45;&gt;successful_ato -->
<g id="edge2" class="edge">
<title>token_mfa_successful&#45;&gt;successful_ato</title>
<path fill="none" stroke="#2b303a" d="M811.71,-338.77C815.91,-282.93 832.54,-162.28 898.29,-90.6 913.07,-74.49 932.94,-62.66 953.12,-54.04"/>
<polygon fill="#2b303a" stroke="#2b303a" points="954.44,-57.28 962.4,-50.29 951.82,-50.79 954.44,-57.28"/>
</g>
<!-- token_mfa_device_successful&#45;&gt;successful_ato -->
<g id="edge10" class="edge">
<title>token_mfa_device_successful&#45;&gt;successful_ato</title>
<path fill="none" stroke="#2b303a" d="M1296.69,-812.44C1361.05,-764.39 1474.29,-663.13 1474.29,-545.4 1474.29,-545.4 1474.29,-545.4 1474.29,-244.6 1474.29,-91.91 1255.06,-48.77 1128.22,-36.59"/>
<polygon fill="#2b303a" stroke="#2b303a" points="1128.41,-33.09 1118.13,-35.67 1127.77,-40.06 1128.41,-33.09"/>
</g>
<!-- on_device -->
<g id="node13" class="node">
<title>on_device</title>
<path fill="#d2d5dd" stroke="transparent" d="M666.35,-169.2C666.35,-169.2 570.23,-169.2 570.23,-169.2 564.23,-169.2 558.23,-163.2 558.23,-157.2 558.23,-157.2 558.23,-102.4 558.23,-102.4 558.23,-96.4 564.23,-90.4 570.23,-90.4 570.23,-90.4 666.35,-90.4 666.35,-90.4 672.35,-90.4 678.35,-96.4 678.35,-102.4 678.35,-102.4 678.35,-157.2 678.35,-157.2 678.35,-163.2 672.35,-169.2 666.35,-169.2"/>
<text text-anchor="middle" x="618.29" y="-142.4" font-family="Arial" font-size="14.00">The attack</text>
<text text-anchor="middle" x="618.29" y="-125.6" font-family="Arial" font-size="14.00">originates from</text>
<text text-anchor="middle" x="618.29" y="-108.8" font-family="Arial" font-size="14.00">device.</text>
</g>
<!-- on_device&#45;&gt;compromise_email -->
<!-- on_device&#45;&gt;successful_ato -->
<g id="edge3" class="edge">
<title>on_device&#45;&gt;successful_ato</title>
<path fill="none" stroke="#2b303a" d="M678.59,-93.55C681.16,-92.49 683.73,-91.5 686.29,-90.6 773.85,-59.8 879.4,-44.94 952.34,-37.89"/>
<polygon fill="#2b303a" stroke="#2b303a" points="952.78,-41.36 962.41,-36.95 952.13,-34.39 952.78,-41.36"/>
</g>
<!-- totp_exposed -->
<g id="node14" class="node">
<title>totp_exposed</title>
<path fill="#ffa6d5" stroke="transparent" d="M1107.48,-417.5C1107.48,-417.5 973.09,-417.5 973.09,-417.5 967.09,-417.5 961.09,-411.5 961.09,-405.5 961.09,-405.5 961.09,-334.1 961.09,-334.1 961.09,-328.1 967.09,-322.1 973.09,-322.1 973.09,-322.1 1107.48,-322.1 1107.48,-322.1 1113.48,-322.1 1119.48,-328.1 1119.48,-334.1 1119.48,-334.1 1119.48,-405.5 1119.48,-405.5 1119.48,-411.5 1113.48,-417.5 1107.48,-417.5"/>
<text text-anchor="middle" x="1040.29" y="-390.8" font-family="Arial" font-size="14.00">TOTP Seed is stored</text>
<text text-anchor="middle" x="1040.29" y="-374" font-family="Arial" font-size="14.00">locally for</text>
<text text-anchor="middle" x="1040.29" y="-357.2" font-family="Arial" font-size="14.00">convenience,</text>
<text text-anchor="middle" x="1040.29" y="-340.4" font-family="Arial" font-size="14.00">exposed</text>
</g>
<!-- totp_seed -->
<g id="node18" class="node">
<title>totp_seed</title>
<path fill="#ffa6d5" stroke="transparent" d="M1260.75,-400.4C1260.75,-400.4 1145.83,-400.4 1145.83,-400.4 1139.83,-400.4 1133.83,-394.4 1133.83,-388.4 1133.83,-388.4 1133.83,-351.2 1133.83,-351.2 1133.83,-345.2 1139.83,-339.2 1145.83,-339.2 1145.83,-339.2 1260.75,-339.2 1260.75,-339.2 1266.75,-339.2 1272.75,-345.2 1272.75,-351.2 1272.75,-351.2 1272.75,-388.4 1272.75,-388.4 1272.75,-394.4 1266.75,-400.4 1260.75,-400.4"/>
<text text-anchor="middle" x="1203.29" y="-374" font-family="Arial" font-size="14.00">TOTP generation</text>
<text text-anchor="middle" x="1203.29" y="-357.2" font-family="Arial" font-size="14.00">seed compromise</text>
</g>
<!-- totp_exposed&#45;&gt;totp_seed -->
<!-- totp_exposed&#45;&gt;successful_ato -->
<g id="edge12" class="edge">
<title>totp_exposed&#45;&gt;successful_ato</title>
<path fill="none" stroke="#2b303a" d="M1040.29,-321.94C1040.29,-255.44 1040.29,-134.8 1040.29,-72.09"/>
<polygon fill="#2b303a" stroke="#2b303a" points="1043.79,-71.81 1040.29,-61.81 1036.79,-71.81 1043.79,-71.81"/>
</g>
<!-- compromise_email&#45;&gt;successful_ato -->
<g id="edge13" class="edge">
<title>compromise_email&#45;&gt;successful_ato</title>
<path fill="none" stroke="#2b303a" d="M841.46,-97.76C847.81,-95.28 854.15,-92.86 860.29,-90.6 890.08,-79.63 923.02,-68.57 952.48,-59.05"/>
<polygon fill="#2b303a" stroke="#2b303a" points="953.88,-62.27 962.33,-55.88 951.74,-55.61 953.88,-62.27"/>
</g>
<!-- social_engineer_support&#45;&gt;compromised_email -->
<!-- social_engineer_support&#45;&gt;successful_ato -->
<g id="edge11" class="edge">
<title>social_engineer_support&#45;&gt;successful_ato</title>
<path fill="none" stroke="#2b303a" d="M1026.16,-1077.45C1017.73,-1071.48 1008.95,-1065.73 1000.29,-1060.8 970.31,-1043.73 949.01,-1059.38 928.29,-1031.8 877.94,-964.8 909.29,-928 909.29,-844.2 909.29,-844.2 909.29,-844.2 909.29,-244.6 909.29,-175.64 889.06,-147.32 928.29,-90.6 935.12,-80.72 944.14,-72.38 954.11,-65.37"/>
<polygon fill="#2b303a" stroke="#2b303a" points="956.21,-68.18 962.68,-59.79 952.39,-62.32 956.21,-68.18"/>
</g>
<!-- compromised_email&#45;&gt;mfa_enabled -->
<g id="edge59" class="edge">
<title>compromised_email&#45;&gt;mfa_enabled</title>
<path fill="none" stroke="#2b303a" d="M1204.34,-1085.86C1192.87,-1076.39 1179.76,-1067.15 1166.29,-1060.8 1105.26,-1032.03 1060.19,-1083.86 1017.29,-1031.8 985.63,-993.39 998.03,-965.7 1017.29,-919.8 1020.52,-912.1 1024.96,-904.79 1030.09,-897.97"/>
<polygon fill="#2b303a" stroke="#2b303a" points="1032.81,-900.16 1036.39,-890.19 1027.38,-895.76 1032.81,-900.16"/>
</g>
<!-- compromised_email&#45;&gt;password_successful -->
<g id="edge66" class="edge">
<title>compromised_email&#45;&gt;password_successful</title>
<path fill="none" stroke="#2b303a" d="M1206.5,-1085.84C1194.68,-1075.88 1180.84,-1066.38 1166.29,-1060.8 1029.01,-1008.13 644.98,-1077.68 505.29,-1031.8 487.45,-1025.94 469.87,-1015.03 455.59,-1004.46"/>
<polygon fill="#2b303a" stroke="#2b303a" points="457.65,-1001.63 447.59,-998.32 453.39,-1007.19 457.65,-1001.63"/>
</g>
<!-- compromised_email&#45;&gt;successful_ato -->
<g id="edge8" class="edge">
<title>compromised_email&#45;&gt;successful_ato</title>
<path fill="none" stroke="#2b303a" d="M1204.84,-1085.96C1193.28,-1076.38 1179.99,-1067.05 1166.29,-1060.8 1095.76,-1028.63 1052.25,-1083.29 994.29,-1031.8 929.33,-974.1 939.29,-931.09 939.29,-844.2 939.29,-844.2 939.29,-844.2 939.29,-244.6 939.29,-178.17 979.96,-110.36 1009.68,-69.67"/>
<polygon fill="#2b303a" stroke="#2b303a" points="1012.67,-71.52 1015.84,-61.41 1007.06,-67.34 1012.67,-71.52"/>
</g>
<!-- totp_predict -->
<g id="node19" class="node">
<title>totp_predict</title>
<path fill="#ffa6d5" stroke="transparent" d="M1410.15,-400.4C1410.15,-400.4 1298.43,-400.4 1298.43,-400.4 1292.43,-400.4 1286.43,-394.4 1286.43,-388.4 1286.43,-388.4 1286.43,-351.2 1286.43,-351.2 1286.43,-345.2 1292.43,-339.2 1298.43,-339.2 1298.43,-339.2 1410.15,-339.2 1410.15,-339.2 1416.15,-339.2 1422.15,-345.2 1422.15,-351.2 1422.15,-351.2 1422.15,-388.4 1422.15,-388.4 1422.15,-394.4 1416.15,-400.4 1410.15,-400.4"/>
<text text-anchor="middle" x="1354.29" y="-374" font-family="Arial" font-size="14.00">TOTP generation</text>
<text text-anchor="middle" x="1354.29" y="-357.2" font-family="Arial" font-size="14.00">predictable</text>
</g>
<!-- totp_seed&#45;&gt;totp_predict -->
<!-- totp_seed&#45;&gt;successful_ato -->
<g id="edge5" class="edge">
<title>totp_seed&#45;&gt;successful_ato</title>
<path fill="none" stroke="#2b303a" d="M1188.97,-339.19C1159.51,-278.29 1092.14,-139.01 1059.17,-70.84"/>
<polygon fill="#2b303a" stroke="#2b303a" points="1062.26,-69.18 1054.75,-61.71 1055.96,-72.23 1062.26,-69.18"/>
</g>
<!-- totp_predict&#45;&gt;successful_ato -->
<g id="edge6" class="edge">
<title>totp_predict&#45;&gt;successful_ato</title>
<path fill="none" stroke="#2b303a" d="M1327.14,-338.94C1280.5,-287.76 1182.03,-180.15 1097.29,-90.6 1090.69,-83.62 1083.6,-76.23 1076.74,-69.13"/>
<polygon fill="#2b303a" stroke="#2b303a" points="1078.9,-66.33 1069.43,-61.58 1073.87,-71.2 1078.9,-66.33"/>
</g>
<!-- session_weakness&#45;&gt;app_weakness -->
<!-- session_pinning -->
<g id="node36" class="node">
<title>session_pinning</title>
<path fill="#b9d6f2" stroke="transparent" d="M1640.03,-882.6C1640.03,-882.6 1538.55,-882.6 1538.55,-882.6 1532.55,-882.6 1526.55,-876.6 1526.55,-870.6 1526.55,-870.6 1526.55,-815.8 1526.55,-815.8 1526.55,-809.8 1532.55,-803.8 1538.55,-803.8 1538.55,-803.8 1640.03,-803.8 1640.03,-803.8 1646.03,-803.8 1652.03,-809.8 1652.03,-815.8 1652.03,-815.8 1652.03,-870.6 1652.03,-870.6 1652.03,-876.6 1646.03,-882.6 1640.03,-882.6"/>
<text text-anchor="middle" x="1589.29" y="-855.8" font-family="Arial" font-size="14.00">Application fails</text>
<text text-anchor="middle" x="1589.29" y="-839" font-family="Arial" font-size="14.00">if ip/session</text>
<text text-anchor="middle" x="1589.29" y="-822.2" font-family="Arial" font-size="14.00">doesn&#39;t match.</text>
</g>
<!-- session_weakness&#45;&gt;session_pinning -->
<g id="edge44" class="edge">
<title>session_weakness&#45;&gt;session_pinning</title>
<path fill="none" stroke="#2b303a" d="M1593.48,-1218.71C1592.46,-1127.23 1590.71,-971.46 1589.83,-892.76"/>
<polygon fill="#2b303a" stroke="#2b303a" points="1593.33,-892.6 1589.72,-882.64 1586.33,-892.68 1593.33,-892.6"/>
</g>
<!-- app_weakness&#45;&gt;session_exposure -->
<g id="edge31" class="edge">
<title>app_weakness&#45;&gt;session_exposure</title>
<path fill="none" stroke="#2b303a" d="M1762.63,-1235.27C1762.97,-1221.32 1763.34,-1206.21 1763.69,-1191.8"/>
<polygon fill="#2b303a" stroke="#2b303a" points="1767.2,-1191.55 1763.94,-1181.47 1760.2,-1191.38 1767.2,-1191.55"/>
</g>
<!-- app_weakness&#45;&gt;successful_ato -->
<g id="edge9" class="edge">
<title>app_weakness&#45;&gt;successful_ato</title>
<path fill="none" stroke="#2b303a" d="M1713.69,-1235.13C1703.98,-1221.11 1695,-1205.49 1689.29,-1189.6 1657.2,-1100.38 1674.29,-1071.61 1674.29,-976.8 1674.29,-976.8 1674.29,-976.8 1674.29,-244.6 1674.29,-156.17 1625.89,-133.01 1548.29,-90.6 1477.93,-52.15 1254,-38.69 1128.21,-34.09"/>
<polygon fill="#2b303a" stroke="#2b303a" points="1128.33,-30.59 1118.21,-33.74 1128.08,-37.59 1128.33,-30.59"/>
</g>
<!-- password_spray&#45;&gt;password_successful -->
<g id="edge65" class="edge">
<title>password_spray&#45;&gt;password_successful</title>
<path fill="none" stroke="#2b303a" d="M117.88,-1085.95C129.78,-1076.81 143.05,-1067.72 156.29,-1060.8 213.86,-1030.72 284.11,-1009.15 338.1,-995.4"/>
<polygon fill="#2b303a" stroke="#2b303a" points="339.14,-998.75 347.99,-992.93 337.44,-991.96 339.14,-998.75"/>
</g>
<!-- password_spray&#45;&gt;dictionary_attack -->
<!-- dictionary_attack&#45;&gt;password_successful -->
<g id="edge60" class="edge">
<title>dictionary_attack&#45;&gt;password_successful</title>
<path fill="none" stroke="#2b303a" d="M315.72,-1062.97C341,-1042.72 367.89,-1021.18 388.47,-1004.7"/>
<polygon fill="#2b303a" stroke="#2b303a" points="390.69,-1007.4 396.31,-998.41 386.31,-1001.94 390.69,-1007.4"/>
</g>
<!-- dictionary_attack&#45;&gt;reused_password -->
<!-- dictionary_attack&#45;&gt;rate_limiting -->
<g id="edge38" class="edge">
<title>dictionary_attack&#45;&gt;rate_limiting</title>
<path fill="none" stroke="#2b303a" d="M315.81,-1063.78C317.96,-1062.73 320.12,-1061.73 322.29,-1060.8 397.98,-1028.37 431.12,-1067.59 505.29,-1031.8 518.37,-1025.49 530.62,-1015.38 540.6,-1005.53"/>
<polygon fill="#2b303a" stroke="#2b303a" points="543.33,-1007.75 547.76,-998.13 538.29,-1002.88 543.33,-1007.75"/>
</g>
<!-- dictionary_attack&#45;&gt;unique_complex_password -->
<g id="edge39" class="edge">
<title>dictionary_attack&#45;&gt;unique_complex_password</title>
<path fill="none" stroke="#2b303a" d="M315.74,-1063.6C317.91,-1062.6 320.09,-1061.66 322.29,-1060.8 448.23,-1011.39 498.29,-1078.42 625.29,-1031.8 633.29,-1028.86 641.25,-1024.91 648.85,-1020.46"/>
<polygon fill="#2b303a" stroke="#2b303a" points="650.94,-1023.29 657.6,-1015.05 647.25,-1017.34 650.94,-1023.29"/>
</g>
<!-- reused_password&#45;&gt;password_successful -->
<g id="edge61" class="edge">
<title>reused_password&#45;&gt;password_successful</title>
<path fill="none" stroke="#2b303a" d="M409.62,-1077.56C412.66,-1055.11 416.24,-1028.77 418.97,-1008.66"/>
<polygon fill="#2b303a" stroke="#2b303a" points="422.47,-1008.85 420.35,-998.47 415.54,-1007.91 422.47,-1008.85"/>
</g>
<!-- reused_password&#45;&gt;brute_force -->
<!-- reused_password&#45;&gt;unique_complex_password -->
<g id="edge40" class="edge">
<title>reused_password&#45;&gt;unique_complex_password</title>
<path fill="none" stroke="#2b303a" d="M455.93,-1077.53C464.95,-1071.17 474.56,-1065.3 484.29,-1060.8 542.35,-1033.93 566.5,-1057.04 625.29,-1031.8 632.52,-1028.69 639.77,-1024.87 646.78,-1020.69"/>
<polygon fill="#2b303a" stroke="#2b303a" points="648.88,-1023.51 655.51,-1015.25 645.18,-1017.57 648.88,-1023.51"/>
</g>
<!-- brute_force&#45;&gt;password_successful -->
<g id="edge62" class="edge">
<title>brute_force&#45;&gt;password_successful</title>
<path fill="none" stroke="#2b303a" d="M536.55,-1094.37C511.62,-1068.49 475.76,-1031.27 451.1,-1005.67"/>
<polygon fill="#2b303a" stroke="#2b303a" points="453.61,-1003.23 444.15,-998.46 448.57,-1008.09 453.61,-1003.23"/>
</g>
<!-- brute_force&#45;&gt;host_executable_remote -->
<!-- brute_force&#45;&gt;rate_limiting -->
<g id="edge37" class="edge">
<title>brute_force&#45;&gt;rate_limiting</title>
<path fill="none" stroke="#2b303a" d="M565.29,-1094.37C565.29,-1069.49 565.29,-1034.13 565.29,-1008.69"/>
<polygon fill="#2b303a" stroke="#2b303a" points="568.79,-1008.46 565.29,-998.46 561.79,-1008.46 568.79,-1008.46"/>
</g>
<!-- brute_force&#45;&gt;unique_complex_password -->
<g id="edge41" class="edge">
<title>brute_force&#45;&gt;unique_complex_password</title>
<path fill="none" stroke="#2b303a" d="M593.42,-1094.37C612.82,-1073.8 638.98,-1046.06 661.01,-1022.69"/>
<polygon fill="#2b303a" stroke="#2b303a" points="663.69,-1024.95 668.01,-1015.27 658.6,-1020.15 663.69,-1024.95"/>
</g>
<!-- host_executable_remote&#45;&gt;password_successful -->
<g id="edge63" class="edge">
<title>host_executable_remote&#45;&gt;password_successful</title>
<path fill="none" stroke="#2b303a" d="M661.98,-1069.05C656.83,-1066 651.57,-1063.21 646.29,-1060.8 588.07,-1034.27 564.29,-1056.53 505.29,-1031.8 488.66,-1024.83 471.86,-1014.31 457.82,-1004.32"/>
<polygon fill="#2b303a" stroke="#2b303a" points="459.61,-1001.29 449.47,-998.21 455.48,-1006.94 459.61,-1001.29"/>
</g>
<!-- host_executable_remote&#45;&gt;credential_phishing -->
<!-- credential_phishing&#45;&gt;password_successful -->
<g id="edge64" class="edge">
<title>credential_phishing&#45;&gt;password_successful</title>
<path fill="none" stroke="#2b303a" d="M866.05,-1085.89C849.46,-1076.12 830.74,-1066.72 812.29,-1060.8 681.79,-1018.93 634.38,-1077.83 505.29,-1031.8 487.74,-1025.54 470.32,-1014.69 456.07,-1004.27"/>
<polygon fill="#2b303a" stroke="#2b303a" points="458.16,-1001.46 448.07,-998.22 453.94,-1007.04 458.16,-1001.46"/>
</g>
<!-- credential_phishing&#45;&gt;token_mfa_successful -->
<g id="edge67" class="edge">
<title>credential_phishing&#45;&gt;token_mfa_successful</title>
<path fill="none" stroke="#2b303a" d="M910.42,-1085.8C906.09,-1069.29 901.41,-1049.71 898.29,-1031.8 883.91,-949.24 879.29,-928 879.29,-844.2 879.29,-844.2 879.29,-844.2 879.29,-718 879.29,-597.1 904.34,-560.47 864.29,-446.4 859.6,-433.05 851.79,-419.98 843.54,-408.55"/>
<polygon fill="#2b303a" stroke="#2b303a" points="846.31,-406.42 837.49,-400.55 840.73,-410.64 846.31,-406.42"/>
</g>
<!-- credential_phishing&#45;&gt;session_exposure -->
<!-- session_exposure&#45;&gt;token_mfa_device_successful -->
<g id="edge71" class="edge">
<title>session_exposure&#45;&gt;token_mfa_device_successful</title>
<path fill="none" stroke="#2b303a" d="M1703.45,-1069.08C1649.96,-1023.76 1568.88,-960.6 1489.29,-919.8 1441.85,-895.48 1385.05,-876.99 1339.05,-864.39"/>
<polygon fill="#2b303a" stroke="#2b303a" points="1339.68,-860.93 1329.11,-861.71 1337.86,-867.69 1339.68,-860.93"/>
</g>
<!-- host_executable_malware_local&#45;&gt;mfa_enabled -->
<g id="edge57" class="edge">
<title>host_executable_malware_local&#45;&gt;mfa_enabled</title>
<path fill="none" stroke="#2b303a" d="M1094.29,-928.02C1094.29,-919.3 1094.29,-910.1 1094.29,-901.11"/>
<polygon fill="#2b303a" stroke="#2b303a" points="1097.79,-901.09 1094.29,-891.09 1090.79,-901.09 1097.79,-901.09"/>
</g>
<!-- host_executable_malware_local&#45;&gt;token_mfa_device_successful -->
<g id="edge69" class="edge">
<title>host_executable_malware_local&#45;&gt;token_mfa_device_successful</title>
<path fill="none" stroke="#2b303a" d="M1151.24,-928.02C1170.25,-912.41 1191.14,-895.25 1209.03,-880.55"/>
<polygon fill="#2b303a" stroke="#2b303a" points="1211.52,-883.04 1217.03,-873.98 1207.08,-877.63 1211.52,-883.04"/>
</g>
<!-- host_executable_malware_local&#45;&gt;host_browser_extension_local -->
<!-- host_browser_extension_local&#45;&gt;mfa_enabled -->
<g id="edge58" class="edge">
<title>host_browser_extension_local&#45;&gt;mfa_enabled</title>
<path fill="none" stroke="#2b303a" d="M1186.32,-919.79C1177.26,-912.35 1167.98,-904.73 1158.96,-897.32"/>
<polygon fill="#2b303a" stroke="#2b303a" points="1161.07,-894.52 1151.12,-890.88 1156.62,-899.93 1161.07,-894.52"/>
</g>
<!-- host_browser_extension_local&#45;&gt;token_mfa_device_successful -->
<g id="edge72" class="edge">
<title>host_browser_extension_local&#45;&gt;token_mfa_device_successful</title>
<path fill="none" stroke="#2b303a" d="M1253.29,-919.79C1253.29,-907.73 1253.29,-895.19 1253.29,-883.87"/>
<polygon fill="#2b303a" stroke="#2b303a" points="1256.79,-883.86 1253.29,-873.86 1249.79,-883.86 1256.79,-883.86"/>
</g>
<!-- host_browser_extension_local&#45;&gt;host_rogue_app_local -->
<!-- host_rogue_app_local&#45;&gt;token_mfa_device_successful -->
<g id="edge70" class="edge">
<title>host_rogue_app_local&#45;&gt;token_mfa_device_successful</title>
<path fill="none" stroke="#2b303a" d="M1365.44,-936.32C1343.92,-918.64 1318.53,-897.79 1297.35,-880.39"/>
<polygon fill="#2b303a" stroke="#2b303a" points="1299.41,-877.55 1289.46,-873.91 1294.97,-882.96 1299.41,-877.55"/>
</g>
<!-- compromise_carrier&#45;&gt;token_mfa_successful -->
<g id="edge68" class="edge">
<title>compromise_carrier&#45;&gt;token_mfa_successful</title>
<path fill="none" stroke="#2b303a" d="M797.61,-446.25C799.72,-433.71 801.77,-421.47 803.6,-410.63"/>
<polygon fill="#2b303a" stroke="#2b303a" points="807.06,-411.14 805.27,-400.7 800.16,-409.98 807.06,-411.14"/>
</g>
<!-- rate_limiting&#45;&gt;unique_complex_password -->
<!-- rate_limiting&#45;&gt;unique_complex_password -->
<!-- rate_limiting&#45;&gt;successful_ato -->
<!-- unique_complex_password&#45;&gt;successful_ato -->
<!-- device_confirmation&#45;&gt;on_device -->
<g id="edge73" class="edge">
<title>device_confirmation&#45;&gt;on_device</title>
<path fill="none" stroke="#2b303a" d="M618.29,-197.98C618.29,-191.85 618.29,-185.55 618.29,-179.39"/>
<polygon fill="#2b303a" stroke="#2b303a" points="621.79,-179.19 618.29,-169.19 614.79,-179.19 621.79,-179.19"/>
</g>
<!-- device_confirmation&#45;&gt;compromise_email -->
<g id="edge16" class="edge">
<title>device_confirmation&#45;&gt;compromise_email</title>
<path fill="none" stroke="#2b303a" d="M679.32,-197.98C689.12,-190.5 699.23,-182.78 708.96,-175.35"/>
<polygon fill="#2b303a" stroke="#2b303a" points="711.21,-178.04 717.03,-169.19 706.96,-172.47 711.21,-178.04"/>
</g>
<!-- session_pinning&#45;&gt;successful_ato -->
<g id="edge7" class="edge">
<title>session_pinning&#45;&gt;successful_ato</title>
<path fill="none" stroke="#2b303a" d="M1583.56,-803.88C1575.64,-747.43 1562.29,-638.53 1562.29,-545.4 1562.29,-545.4 1562.29,-545.4 1562.29,-244.6 1562.29,-173.04 1570.07,-136.64 1515.29,-90.6 1458.42,-42.81 1249.3,-33.09 1128.33,-31.58"/>
<polygon fill="#2b303a" stroke="#2b303a" points="1128.02,-28.07 1117.98,-31.47 1127.95,-35.07 1128.02,-28.07"/>
</g>
<!-- sms_mfa&#45;&gt;sms_redirected -->
<g id="edge55" class="edge">
<title>sms_mfa&#45;&gt;sms_redirected</title>
<path fill="none" stroke="#2b303a" d="M716.35,-688.33C700.19,-664.29 676.99,-629.76 657.43,-600.66"/>
<polygon fill="#2b303a" stroke="#2b303a" points="660.24,-598.57 651.75,-592.22 654.43,-602.47 660.24,-598.57"/>
</g>
<!-- sms_mfa&#45;&gt;compromise_carrier -->
<g id="edge35" class="edge">
<title>sms_mfa&#45;&gt;compromise_carrier</title>
<path fill="none" stroke="#2b303a" d="M744.02,-688.33C746.73,-677.96 749.94,-665.64 753.33,-652.64"/>
<polygon fill="#2b303a" stroke="#2b303a" points="756.81,-653.15 755.95,-642.59 750.04,-651.39 756.81,-653.15"/>
</g>
<!-- sms_mfa&#45;&gt;totp_mfa -->
<!-- totp_mfa&#45;&gt;totp_exposed -->
<g id="edge14" class="edge">
<title>totp_mfa&#45;&gt;totp_exposed</title>
<path fill="none" stroke="#2b303a" d="M1064.99,-688.4C1060.5,-630.68 1050.51,-502.24 1044.7,-427.58"/>
<polygon fill="#2b303a" stroke="#2b303a" points="1048.18,-427.12 1043.91,-417.42 1041.2,-427.66 1048.18,-427.12"/>
</g>
<!-- totp_mfa&#45;&gt;totp_seed -->
<g id="edge19" class="edge">
<title>totp_mfa&#45;&gt;totp_seed</title>
<path fill="none" stroke="#2b303a" d="M1078.88,-688.4C1103.36,-625.91 1160.32,-480.5 1187.85,-410.22"/>
<polygon fill="#2b303a" stroke="#2b303a" points="1191.14,-411.41 1191.53,-400.82 1184.62,-408.85 1191.14,-411.41"/>
</g>
<!-- totp_mfa&#45;&gt;totp_predict -->
<g id="edge20" class="edge">
<title>totp_mfa&#45;&gt;totp_predict</title>
<path fill="none" stroke="#2b303a" d="M1100.69,-688.18C1115.21,-674.69 1132.1,-658.24 1146.29,-642.4 1217,-563.45 1290.2,-462.6 1328.06,-408.73"/>
<polygon fill="#2b303a" stroke="#2b303a" points="1330.95,-410.7 1333.83,-400.5 1325.22,-406.69 1330.95,-410.7"/>
</g>
<!-- totp_mfa&#45;&gt;device_mfa -->
<!-- device_mfa&#45;&gt;successful_ato -->
</g>
</svg>
